<svg xmlns="http://www.w3.org/2000/svg" viewBox="0 0 85.8 85.8"  xmlns:v="https://vecta.io/nano"><path d="M85.2 43.3c0 23.3-18.9 42.1-42.1 42.1S1 66.5 1 43.3 19.9 1.2 43.1 1.2 85.2 20 85.2 43.3zm-9.9 10.9h-3.4c-.7 0-1.4-.3-1.9-.8l-5.4-5.5c-.8-.8-.8-2.1 0-2.8l2.1-2.1v-1.5c0-.5-.2-1-.6-1.4l-1.6-1.6c-.4-.4-.8-.6-1.4-.6h-2.7c-1.1 0-1.9-.9-1.9-1.9 0-.5.2-1 .6-1.4l1.6-1.6c.4-.4.8-.6 1.4-.6h5.4c1.1 0 1.9-.9 1.9-1.9V29c0-1.1-.9-1.9-1.9-1.9h-6.2a2.69 2.69 0 0 0-2.7 2.7v.8c0 1.2-.7 2.2-1.9 2.6L51.3 35c-.6.2-.9.7-.9 1.3v.4c0 .7-.6 1.4-1.4 1.4h-2.7c-.7 0-1.4-.6-1.4-1.4 0-.7-.6-1.4-1.4-1.4H43c-.5 0-1 .3-1.2.7l-1.6 3.2c-.5.9-1.4 1.5-2.4 1.5H34a2.69 2.69 0 0 1-2.7-2.7v-4.3c0-.7.3-1.4.8-1.9l3.4-3.4c.8-.8 1.2-1.9 1.2-3 0-.6.4-1.1.9-1.3l6.8-2.3c.3-.1.5-.3.7-.5l4.6-4.6c.4-.4.6-.8.6-1.4 0-1.1-.9-1.9-1.9-1.9h-3.5l-2.7 2.7v1.4c0 .7-.6 1.4-1.4 1.4H38c-.7 0-1.4-.6-1.4-1.4v-3.4c0-.4.2-.8.5-1.1L42 9.3C23.7 9.8 9 24.8 9 43.2c0 18.7 15.2 34 34 34 .6 0 1.1-.1 1.7-.1V76a2.69 2.69 0 0 0-2.7-2.7h-3.4c-1.8 0-4.6-.9-6-2l-3.8-2.8a7.72 7.72 0 0 1-3.1-6.2v-4.1c0-2.7 1.4-5.2 3.8-6.6l7.3-4.4c1.2-.7 2.6-1.1 4-1.1h5.3c1.9 0 3.6.6 5 1.9l7.3 6.3h3.1c1.4 0 2.8.6 3.8 1.6l2.9 2.9c.6.6 1.4.9 2.2.9h2.3c1.1-1.8 1.9-3.6 2.6-5.5zM31.2 23.5c0 .5-.2 1-.6 1.4L29 26.5c-.4.4-.8.6-1.4.6H25c-1.1 0-1.9-.9-1.9-1.9 0-.5.2-1 .6-1.4l4.3-4.3c.4-.4.8-.6 1.4-.6 1.1 0 1.9.9 1.9 1.9v2.7z" fill="#fff"/></svg>