<svg xmlns="http://www.w3.org/2000/svg" viewBox="0 0 85.8 85.8"  xmlns:v="https://vecta.io/nano"><path d="M60.6 68.1v6.6c0 5.9-4.8 10.6-10.6 10.6H28.7c-5.9 0-10.6-4.8-10.6-10.6v-6.6c0-3.9 2.1-7.4 5.3-9.2v-5.6c-3.2-1.8-5.3-5.3-5.3-9.2v-6.5c0-4.3 2.5-7.9 6.1-9.6-1.8-2.9-2.8-6.2-2.8-9.6 0-9.9 8-17.9 17.9-17.9s17.9 8 17.9 17.9a17.99 17.99 0 0 1-4.7 12.1c1.7 1.9 2.7 4.4 2.7 7.1V59c3.3 1.8 5.4 5.2 5.4 9.1zm-8 0a2.69 2.69 0 0 0-2.7-2.7h-2.7V37.6a2.69 2.69 0 0 0-2.7-2.7H28.7a2.69 2.69 0 0 0-2.7 2.7v6.5a2.69 2.69 0 0 0 2.7 2.7h2.7v18.7h-2.7a2.69 2.69 0 0 0-2.7 2.7v6.6a2.69 2.69 0 0 0 2.7 2.7H50a2.69 2.69 0 0 0 2.7-2.7v-6.7zM29.4 18.3c0 5.5 4.5 10 10 10s10-4.5 10-10-4.5-10-10-10c-5.6 0-10 4.5-10 10z" fill="#fff"/></svg>