<svg xmlns="http://www.w3.org/2000/svg" viewBox="0 0 32 10.8"  xmlns:v="https://vecta.io/nano"><linearGradient id="A" gradientUnits="userSpaceOnUse" x1=".2" y1="6.7" x2="1.9" y2="6.7"><stop offset="0" stop-color="#a413cb"/><stop offset="1" stop-color="#ab16c1"/></linearGradient><path d="M.2 2.6h1.7v8.2z" fill="url(#A)"/><linearGradient id="B" gradientUnits="userSpaceOnUse" x1="2.988" y1="6.586" x2="9.34" y2="6.586"><stop offset="0" stop-color="#b318b9"/><stop offset="1" stop-color="#d82791"/></linearGradient><path d="M6.5 2.4c.8 0 1.4.3 2 .9s.8 1.3.8 2.2-.3 1.6-.8 2.2-1.2.9-2 .9-1.3-.2-1.8-.7v2.9H3V2.5h1.8v.6c.4-.5 1-.7 1.7-.7zM5.1 6.5c.3.3.6.4 1 .4s.7-.1 1-.4.4-.6.4-1.1c0-.4-.1-.8-.4-1.1-.2-.1-.5-.3-.9-.3s-.7.1-1 .4-.4.6-.4 1.1c0 .4.1.8.3 1z" fill="url(#B)"/><linearGradient id="C" gradientUnits="userSpaceOnUse" x1="10.048" y1="5.488" x2="15.844" y2="5.488"><stop offset="0" stop-color="#dc288c"/><stop offset="1" stop-color="#fc356b"/></linearGradient><path d="M13.2 8.6c-.9 0-1.6-.3-2.2-.9-.7-.6-1-1.3-1-2.2s.3-1.6.9-2.2 1.3-.9 2.2-.9c.6 0 1.1.1 1.6.4s.9.6 1.1 1.1l-1.5.9c-.2-.4-.6-.7-1.1-.7-.4 0-.7.1-1 .4s-.4.6-.4 1 .1.7.4 1 .6.4 1 .4c.6 0 .9-.2 1.1-.7l1.5.9c-.3.5-.6.8-1.1 1.1-.4.3-1 .4-1.5.4z" fill="url(#C)"/><linearGradient id="D" gradientUnits="userSpaceOnUse" x1="16.14" y1="5.488" x2="22.396" y2="5.488"><stop offset="0" stop-color="#fd3667"/><stop offset="1" stop-color="#ff6043"/></linearGradient><path d="M21.5 7.7c-.6.6-1.3.9-2.2.9s-1.6-.3-2.2-.9-.9-1.3-.9-2.2.3-1.6.9-2.2 1.3-.9 2.2-.9 1.6.3 2.2.9.9 1.3.9 2.2-.3 1.6-.9 2.2zm-3.6-2.2c0 .4.1.7.4 1s.6.4 1 .4.7-.1 1-.4.4-.6.4-1-.1-.7-.4-1-.6-.4-1-.4-.7.1-1 .4c-.3.2-.4.6-.4 1z" fill="url(#D)"/><linearGradient id="E" gradientUnits="userSpaceOnUse" x1="22.869" y1="5.488" x2="27.863" y2="5.488"><stop offset="0" stop-color="#ff6340"/><stop offset="1" stop-color="#ff8720"/></linearGradient><path d="M25 4.3c0 .1.1.2.2.3.2.1.4.2.8.3 1.3.3 1.9.9 1.9 1.9 0 .6-.2 1.1-.7 1.5-.5.3-1.1.5-1.7.5-1.2 0-2.1-.5-2.5-1.4l1.5-.9c.2.5.5.7 1 .7.3-.2.5-.3.5-.5s-.3-.3-1-.5c-.3-.1-.5-.1-.6-.2l-.6-.3c-.2-.1-.4-.3-.5-.5s-.2-.5-.2-.8c0-.6.2-1.1.7-1.4.4-.3 1-.5 1.7-.5 1 0 1.8.4 2.3 1.3l-1.5.8c-.2-.3-.5-.5-.8-.5-.4-.2-.5-.1-.5.2z" fill="url(#E)"/><linearGradient id="F" gradientUnits="userSpaceOnUse" x1="28.098" y1="4.685" x2="32.03" y2="4.685"><stop offset="0" stop-color="#ff6340"/><stop offset="1" stop-color="#ffaa02"/></linearGradient><path d="M32 2.5v1.7h-1.2v2.1c0 .2.1.4.3.4.2.1.5.1.9.1v1.6c-1.1.1-1.9 0-2.3-.3s-.7-.9-.7-1.8V4.2h-.9V2.5h.9V1.4l1.8-.5v1.7H32z" fill="url(#F)"/><linearGradient id="G" gradientUnits="userSpaceOnUse" x1="0" y1="1.05" x2="2.1" y2="1.05"><stop offset="0" stop-color="#a413cb"/><stop offset="1" stop-color="#ab16c1"/></linearGradient><circle cx="1" cy="1" r="1" fill="url(#G)"/></svg>